<?xml version="1.0" encoding="UTF-8"?>
<svg id="Layer_2" data-name="Layer 2" xmlns="http://www.w3.org/2000/svg" viewBox="0 0 571.53 763.92">
  <defs>
    <style>
      .cls-1 {
        fill: #aeffd8;
      }

      .cls-2 {
        fill: #00e89b;
      }

      .cls-3 {
        fill: #fff;
      }

      .cls-4 {
        fill: #d7ffec;
      }

      .cls-5 {
        fill: #043d3d;
      }
    </style>
  </defs>
  <g id="Layer_1-2" data-name="Layer 1">
    <g>
      <rect class="cls-5" width="571.53" height="763.92"/>
      <polygon class="cls-2" points="428.95 364.85 356.94 436.87 129.48 209.41 273.51 209.41 428.95 364.85"/>
      <polygon class="cls-1" points="467.5 587.56 323.46 587.56 173.35 437.45 104.03 368.13 104.03 224.1 317.38 437.45 467.5 587.56"/>
      <polygon class="cls-4" points="286.06 587.56 104.03 587.56 104.03 405.53 286.06 587.56"/>
      <path class="cls-3" d="M553.6,739.11H17.93V24.8h535.67v714.31ZM22.93,734.11h525.67V29.8H22.93v704.31Z"/>
      <path class="cls-3" d="M553.6,174.14H17.93V26.23h535.67v147.91ZM22.93,169.14h525.67V31.23H22.93v137.91Z"/>
      <path class="cls-3" d="M553.6,739.11H17.93v-116.19h535.67v116.19ZM22.93,734.11h525.67v-106.19H22.93v106.19Z"/>
      <g>
        <path class="cls-3" d="M80.61,135.26v-71.05h24.51c18.74,0,23.99,6.59,23.99,21.31,0,10.19-3.81,16.89-12.56,19.15l16.89,30.58h-16.47l-14-27.8h-7.52v27.8h-14.83ZM95.44,95.72h7.93c8.86,0,10.71-2.78,10.71-9.99s-1.96-9.78-9.37-9.78h-9.27v19.77Z"/>
        <path class="cls-3" d="M186.36,135.26h-42.83v-71.05h42.53v12.15h-27.7v16.27h22.14v12.25h-22.14v18.23h28.01v12.15Z"/>
        <path class="cls-3" d="M209.94,135.26h-14.21v-3.81c0-5.15.21-7.21,1.44-12.05l14.21-55.19h22.03l14.21,55.19c1.13,4.84,1.44,6.9,1.44,12.05v3.81h-14.83v-5.87c0-3.4-.72-6.08-1.34-8.85l-.31-1.54h-21l-.31,1.54c-.62,2.78-1.34,5.46-1.34,8.85v5.87ZM229.81,107.15l-7.72-33.57-7.72,33.57h15.45Z"/>
        <path class="cls-3" d="M261.12,64.21h14.83v58.38h25.84v12.67h-40.67v-71.05Z"/>
        <path class="cls-3" d="M338.35,62.98c8.65,0,14.21,1.13,18.02,2.16l-2.78,12.05c-4.43-.93-9.16-1.65-14.83-1.65-8.44.1-12.87,5.97-12.87,23.79s4.02,24.4,13.69,24.4c5.87,0,10.3-.82,15.03-2.27l2.47,11.94c-4.63,1.65-10.81,3.09-20.39,3.09-18.64,0-26.15-10.5-26.15-36.45s8.44-37.07,27.8-37.07Z"/>
        <path class="cls-3" d="M393.85,62.98c20.8,0,27.6,10.3,27.6,36.76s-8.86,36.76-27.6,36.76c-20.9,0-27.59-10.3-27.59-36.76s8.86-36.76,27.59-36.76ZM393.85,75.02c-9.06,0-12.36,5.25-12.36,24.71s3.29,24.71,12.36,24.71,12.36-5.25,12.36-24.71-3.29-24.71-12.36-24.71Z"/>
        <path class="cls-3" d="M455.94,64.21l20.49,55.91v-55.91h13.49v71.05h-20.7l-21.11-56.73v56.73h-13.49v-71.05h21.31Z"/>
      </g>
      <g>
        <path class="cls-3" d="M99.87,701.56h-9.33v-2.5c0-3.38.14-4.73.95-7.91l9.33-36.24h14.47l9.33,36.24c.74,3.18.95,4.53.95,7.91v2.5h-9.74v-3.85c0-2.23-.47-3.99-.88-5.81l-.2-1.01h-13.79l-.2,1.01c-.41,1.83-.88,3.58-.88,5.81v3.85ZM112.92,683.11l-5.07-22.04-5.07,22.04h10.14Z"/>
        <path class="cls-3" d="M136.65,692.57c4.06.88,7.71,1.62,11.9,1.62,6.15,0,7.71-2.16,7.71-6.36,0-3.52-1.76-4.53-5.14-5.21l-5-.74c-7.37-1.28-10.34-4.67-10.34-13.32,0-10.14,6.02-14.47,16.02-14.47,5.81,0,10.61.95,12.71,1.35l-1.83,7.91c-2.77-.47-7.3-1.22-11.09-1.22-4.67,0-6.22,2.1-6.22,5.61,0,3.18,1.01,4.06,4.4,4.73l4.87.81c8.25,1.49,11.29,5.14,11.29,13.59,0,10.68-5.14,15.48-17.31,15.48-5.34,0-9.06-.61-13.32-1.49l1.35-8.32Z"/>
        <path class="cls-3" d="M177.22,692.57c4.06.88,7.71,1.62,11.9,1.62,6.15,0,7.71-2.16,7.71-6.36,0-3.52-1.76-4.53-5.14-5.21l-5-.74c-7.37-1.28-10.34-4.67-10.34-13.32,0-10.14,6.02-14.47,16.02-14.47,5.81,0,10.61.95,12.71,1.35l-1.83,7.91c-2.77-.47-7.3-1.22-11.09-1.22-4.67,0-6.22,2.1-6.22,5.61,0,3.18,1.01,4.06,4.4,4.73l4.87.81c8.25,1.49,11.29,5.14,11.29,13.59,0,10.68-5.14,15.48-17.31,15.48-5.34,0-9.06-.61-13.32-1.49l1.35-8.32Z"/>
        <path class="cls-3" d="M235.16,654.1c13.66,0,18.12,6.76,18.12,24.14s-5.81,24.14-18.12,24.14c-13.72,0-18.12-6.76-18.12-24.14s5.82-24.14,18.12-24.14ZM235.16,662.01c-5.95,0-8.11,3.45-8.11,16.23s2.16,16.23,8.11,16.23,8.11-3.45,8.11-16.23-2.16-16.23-8.11-16.23Z"/>
        <path class="cls-3" d="M282.7,654.1c5.68,0,9.33.74,11.83,1.42l-1.83,7.91c-2.91-.61-6.02-1.08-9.74-1.08-5.54.07-8.45,3.92-8.45,15.62s2.64,16.02,8.99,16.02c3.85,0,6.76-.54,9.87-1.49l1.62,7.84c-3.04,1.08-7.1,2.03-13.39,2.03-12.24,0-17.17-6.9-17.17-23.93s5.54-24.34,18.25-24.34Z"/>
        <path class="cls-3" d="M315.62,654.91v46.65h-9.74v-46.65h9.74Z"/>
        <path class="cls-3" d="M336.52,701.56h-9.33v-2.5c0-3.38.13-4.73.95-7.91l9.33-36.24h14.47l9.33,36.24c.74,3.18.95,4.53.95,7.91v2.5h-9.74v-3.85c0-2.23-.47-3.99-.88-5.81l-.2-1.01h-13.79l-.2,1.01c-.41,1.83-.88,3.58-.88,5.81v3.85ZM349.57,683.11l-5.07-22.04-5.07,22.04h10.14Z"/>
        <path class="cls-3" d="M368.03,663.09v-8.18h32.18v8.18h-11.22v38.47h-9.74v-38.47h-11.22Z"/>
        <path class="cls-3" d="M439.22,701.56h-28.13v-46.65h27.92v7.98h-18.19v10.68h14.54v8.05h-14.54v11.97h18.39v7.98Z"/>
        <path class="cls-3" d="M450.51,692.57c4.06.88,7.71,1.62,11.9,1.62,6.15,0,7.71-2.16,7.71-6.36,0-3.52-1.76-4.53-5.14-5.21l-5-.74c-7.37-1.28-10.34-4.67-10.34-13.32,0-10.14,6.02-14.47,16.02-14.47,5.81,0,10.61.95,12.71,1.35l-1.83,7.91c-2.77-.47-7.3-1.22-11.09-1.22-4.67,0-6.22,2.1-6.22,5.61,0,3.18,1.01,4.06,4.4,4.73l4.87.81c8.25,1.49,11.29,5.14,11.29,13.59,0,10.68-5.14,15.48-17.31,15.48-5.34,0-9.06-.61-13.32-1.49l1.35-8.32Z"/>
      </g>
    </g>
  </g>
</svg>