<?xml version="1.0" encoding="UTF-8"?>
<svg id="Layer_2" data-name="Layer 2" xmlns="http://www.w3.org/2000/svg" viewBox="0 0 1873.34 553.97">
  <defs>
    <style>
      .cls-1 {
        opacity: .6;
      }

      .cls-2 {
        fill: #043d3d;
      }

      .cls-3 {
        opacity: .2;
      }
    </style>
  </defs>
  <g id="Layer_1-2" data-name="Layer 1">
    <g>
      <polygon class="cls-2" points="475.98 227.71 370.49 333.22 37.27 0 248.27 0 475.98 227.71"/>
      <g class="cls-1">
        <polygon class="cls-2" points="532.45 553.97 321.45 553.97 101.55 334.06 0 232.52 0 21.52 312.54 334.06 532.45 553.97"/>
      </g>
      <g class="cls-3">
        <polygon class="cls-2" points="266.66 553.97 0 553.97 0 287.31 266.66 553.97"/>
      </g>
      <g>
        <path class="cls-2" d="M636.49,322.28V92.44h79.28c60.62,0,77.61,21.32,77.61,68.95,0,32.98-12.32,54.63-40.64,61.96l54.63,98.93h-53.3l-45.3-89.94h-24.32v89.94h-47.97ZM684.45,194.37h25.65c28.65,0,34.64-8.99,34.64-32.31s-6.33-31.64-30.31-31.64h-29.98v63.96Z"/>
        <path class="cls-2" d="M963.25,322.28h-138.57V92.44h137.57v39.31h-89.6v52.63h71.62v39.64h-71.62v58.96h90.6v39.31Z"/>
        <path class="cls-2" d="M1024.2,322.28h-45.97v-12.32c0-16.65.67-23.32,4.66-38.97l45.97-178.54h71.28l45.97,178.54c3.66,15.66,4.66,22.32,4.66,38.97v12.32h-47.97v-18.99c0-10.99-2.33-19.65-4.33-28.65l-1-5h-67.95l-1,5c-2,8.99-4.33,17.65-4.33,28.65v18.99ZM1088.49,231.34l-24.98-108.59-24.98,108.59h49.96Z"/>
        <path class="cls-2" d="M1174.43,92.44h47.97v188.87h83.61v40.97h-131.57V92.44Z"/>
        <path class="cls-2" d="M1408.93,88.44c27.98,0,45.97,3.66,58.29,7l-8.99,38.97c-14.32-3-29.65-5.33-47.97-5.33-27.31.33-41.64,19.32-41.64,76.95s12.99,78.94,44.3,78.94c18.99,0,33.31-2.67,48.63-7.33l7.99,38.64c-14.99,5.33-34.98,9.99-65.95,9.99-60.29,0-84.61-33.98-84.61-117.92s27.31-119.92,89.94-119.92Z"/>
        <path class="cls-2" d="M1573.14,88.44c67.29,0,89.27,33.31,89.27,118.92s-28.65,118.92-89.27,118.92c-67.62,0-89.27-33.31-89.27-118.92s28.65-118.92,89.27-118.92ZM1573.14,127.41c-29.31,0-39.97,16.99-39.97,79.94s10.66,79.94,39.97,79.94,39.97-16.99,39.97-79.94-10.66-79.94-39.97-79.94Z"/>
        <path class="cls-2" d="M1758.67,92.44l66.29,180.87V92.44h43.64v229.84h-66.95l-68.29-183.54v183.54h-43.64V92.44h68.95Z"/>
      </g>
      <g class="cls-1">
        <g>
          <path class="cls-2" d="M655.72,459.64h-16.69v-4.48c0-6.05.24-8.47,1.69-14.15l16.69-64.84h25.89l16.69,64.84c1.33,5.69,1.69,8.1,1.69,14.15v4.48h-17.42v-6.9c0-3.99-.85-7.14-1.57-10.4l-.36-1.81h-24.68l-.36,1.81c-.73,3.27-1.57,6.41-1.57,10.4v6.9ZM679.07,426.62l-9.07-39.44-9.07,39.44h18.15Z"/>
          <path class="cls-2" d="M781.29,443.55c7.26,1.57,13.79,2.9,21.29,2.9,11.01,0,13.79-3.87,13.79-11.37,0-6.29-3.15-8.11-9.19-9.31l-8.95-1.33c-13.19-2.3-18.51-8.35-18.51-23.83,0-18.15,10.77-25.89,28.67-25.89,10.4,0,18.99,1.69,22.74,2.42l-3.27,14.15c-4.96-.85-13.06-2.18-19.84-2.18-8.35,0-11.13,3.75-11.13,10.04,0,5.69,1.81,7.26,7.86,8.47l8.71,1.45c14.76,2.66,20.2,9.19,20.2,24.31,0,19.11-9.19,27.7-30.97,27.7-9.56,0-16.21-1.09-23.83-2.66l2.42-14.88Z"/>
          <path class="cls-2" d="M913.64,443.55c7.26,1.57,13.79,2.9,21.29,2.9,11.01,0,13.79-3.87,13.79-11.37,0-6.29-3.15-8.11-9.19-9.31l-8.95-1.33c-13.19-2.3-18.51-8.35-18.51-23.83,0-18.15,10.77-25.89,28.67-25.89,10.4,0,18.99,1.69,22.74,2.42l-3.27,14.15c-4.96-.85-13.06-2.18-19.84-2.18-8.35,0-11.13,3.75-11.13,10.04,0,5.69,1.81,7.26,7.86,8.47l8.71,1.45c14.76,2.66,20.2,9.19,20.2,24.31,0,19.11-9.19,27.7-30.97,27.7-9.56,0-16.21-1.09-23.83-2.66l2.42-14.88Z"/>
          <path class="cls-2" d="M1077.08,374.72c24.44,0,32.42,12.1,32.42,43.19s-10.4,43.19-32.42,43.19c-24.56,0-32.42-12.1-32.42-43.19s10.4-43.19,32.42-43.19ZM1077.08,388.88c-10.65,0-14.52,6.17-14.52,29.03s3.87,29.03,14.52,29.03,14.52-6.17,14.52-29.03-3.87-29.03-14.52-29.03Z"/>
          <path class="cls-2" d="M1221.89,374.72c10.16,0,16.69,1.33,21.17,2.54l-3.27,14.15c-5.2-1.09-10.77-1.94-17.42-1.94-9.92.12-15.12,7.02-15.12,27.94s4.72,28.67,16.09,28.67c6.9,0,12.1-.97,17.66-2.66l2.9,14.03c-5.44,1.94-12.7,3.63-23.95,3.63-21.9,0-30.73-12.34-30.73-42.82s9.92-43.55,32.66-43.55Z"/>
          <path class="cls-2" d="M1340.56,376.17v83.47h-17.42v-83.47h17.42Z"/>
          <path class="cls-2" d="M1437.71,459.64h-16.69v-4.48c0-6.05.24-8.47,1.69-14.15l16.69-64.84h25.89l16.69,64.84c1.33,5.69,1.69,8.1,1.69,14.15v4.48h-17.42v-6.9c0-3.99-.85-7.14-1.57-10.4l-.36-1.81h-24.68l-.36,1.81c-.73,3.27-1.57,6.41-1.57,10.4v6.9ZM1461.05,426.62l-9.07-39.44-9.07,39.44h18.15Z"/>
          <path class="cls-2" d="M1553.84,390.81v-14.64h57.58v14.64h-20.08v68.83h-17.42v-68.83h-20.08Z"/>
          <path class="cls-2" d="M1740.99,459.64h-50.32v-83.47h49.96v14.27h-32.54v19.11h26.01v14.4h-26.01v21.41h32.9v14.27Z"/>
          <path class="cls-2" d="M1820.96,443.55c7.26,1.57,13.79,2.9,21.29,2.9,11.01,0,13.79-3.87,13.79-11.37,0-6.29-3.15-8.11-9.19-9.31l-8.95-1.33c-13.19-2.3-18.51-8.35-18.51-23.83,0-18.15,10.77-25.89,28.67-25.89,10.4,0,18.99,1.69,22.74,2.42l-3.27,14.15c-4.96-.85-13.06-2.18-19.84-2.18-8.35,0-11.13,3.75-11.13,10.04,0,5.69,1.81,7.26,7.86,8.47l8.71,1.45c14.76,2.66,20.2,9.19,20.2,24.31,0,19.11-9.19,27.7-30.97,27.7-9.56,0-16.21-1.09-23.83-2.66l2.42-14.88Z"/>
        </g>
      </g>
    </g>
  </g>
</svg>