<?xml version="1.0" encoding="UTF-8"?>
<svg id="Layer_2" data-name="Layer 2" xmlns="http://www.w3.org/2000/svg" viewBox="0 0 347.86 347.86">
  <defs>
    <style>
      .cls-1 {
        stroke: #fff;
      }

      .cls-1, .cls-2 {
        fill: none;
        stroke-linecap: round;
        stroke-linejoin: round;
        stroke-width: 18px;
      }

      .cls-2 {
        stroke: #00e89b;
      }
    </style>
  </defs>
  <g id="Layer_1-2" data-name="Layer 1">
    <g>
      <path class="cls-2" d="M140.94,217.8v26.82c-.13,11.49-6.23,22.09-16.1,27.97-20.9,15.48-33.27,39.9-33.38,65.91"/>
      <path class="cls-2" d="M206.92,217.8v26.82c.13,11.49,6.23,22.09,16.1,27.97,20.9,15.48,33.27,39.9,33.38,65.91"/>
      <path class="cls-2" d="M272.89,124.45h24.74c22.77,0,41.23-18.46,41.23-41.23s-18.46-41.23-41.23-41.23h-24.74"/>
      <path class="cls-1" d="M41.99,338.86h263.89"/>
      <path class="cls-2" d="M74.97,124.45h-24.74c-22.77,0-41.23-18.46-41.23-41.23s18.46-41.23,41.23-41.23h24.74"/>
      <path class="cls-1" d="M74.97,124.45c0,54.65,44.31,98.96,98.96,98.96s98.96-44.31,98.96-98.96V25.49c0-9.11-7.38-16.49-16.49-16.49H91.47c-9.11,0-16.49,7.38-16.49,16.49v98.96Z"/>
    </g>
  </g>
</svg>